<svg xmlns="http://www.w3.org/2000/svg" viewBox="0 0 208 48"><title>SELogo</title><path d="M60.36,22.44l-.9-.52A5.73,5.73,0,0,1,58,20.81a1.75,1.75,0,0,1-.39-1.16,2.1,2.1,0,0,1,.6-1.52,1.94,1.94,0,0,1,1.45-.62,2.3,2.3,0,0,1,1.68.66,2.8,2.8,0,0,1,.37,1.57v.16H63V17.22a13.08,13.08,0,0,0-3.59-.59,4.77,4.77,0,0,0-3.21,1A3.42,3.42,0,0,0,55,20.4q0,2.17,3.34,4l.89.49A5,5,0,0,1,60.75,26a2.18,2.18,0,0,1,.39,1.35,2.26,2.26,0,0,1-2.39,2.38,3,3,0,0,1-1.95-.67,2.17,2.17,0,0,1-.46-1.51v-.22H55v2.78a16.64,16.64,0,0,0,3.75.5,5.71,5.71,0,0,0,3.67-1.09,3.55,3.55,0,0,0,1.36-2.92,3.35,3.35,0,0,0-.72-2.17A10.29,10.29,0,0,0,60.36,22.44Z" style="fill:#231f61"/><path d="M75.94,20.07h.13c.54,0,.81.1.81.31a3.12,3.12,0,0,1-.12.56c-.08.29-.14.5-.18.63l-1.74,5.49-2.42-7.55h-.84l-2.27,7.11-1.45-5.08a5.29,5.29,0,0,1-.24-1.2c0-.18.3-.27.89-.27h.14v-.69h-4.3v.69h.14c.41,0,.65.1.74.2a5.94,5.94,0,0,1,.47,1.26l2.54,9H69l2.42-7.62,2.46,7.62h.72l2.86-8.93a10.66,10.66,0,0,1,.47-1.34c.06-.09.22-.13.47-.13l.33,0h.13v-.69H75.94Z" style="fill:#231f61"/><path d="M79.18,20.07h.14c.5,0,.81.13.9.26a2.73,2.73,0,0,1,.14,1.19v6.69a2.71,2.71,0,0,1-.15,1.19c-.1.14-.4.22-.9.25h-.14v.69h4.67v-.69h-.13q-.76-.05-.91-.25a2.71,2.71,0,0,1-.15-1.19V21.53a2.73,2.73,0,0,1,.14-1.19c.1-.13.4-.22.91-.26h.13v-.69H79.18Z" style="fill:#231f61"/><path d="M92.1,20.07h.14c.5,0,.81.13.9.26a2.73,2.73,0,0,1,.14,1.19v6.15l-6-8.29H84.49v.69h.14c.5,0,.81.13.9.26a2.73,2.73,0,0,1,.14,1.19v6.69a2.7,2.7,0,0,1-.15,1.19c-.1.14-.4.22-.9.25h-.14v.69h3.46v-.69h-.13q-.76-.05-.91-.25a2.71,2.71,0,0,1-.15-1.19v-6l6.09,8.31h1.52v-9a2.68,2.68,0,0,1,.15-1.19c.1-.13.4-.22.91-.26h.13v-.69H92.1Z" style="fill:#231f61"/><path d="M102.67,26.22h.13q.76.05.91.25a2.67,2.67,0,0,1,.15,1.19v2a3.47,3.47,0,0,1-1.1.19,3.1,3.1,0,0,1-2.7-1.26,6.49,6.49,0,0,1-.9-3.77,6.83,6.83,0,0,1,.84-3.77,2.84,2.84,0,0,1,2.53-1.26,3.32,3.32,0,0,1,2.27.65,1.72,1.72,0,0,1,.24,1.14v.13h1.1V19.59a14.4,14.4,0,0,0-3.59-.48,5.86,5.86,0,0,0-4.31,1.5,5.72,5.72,0,0,0-1.52,4.26,5.75,5.75,0,0,0,1.53,4.22,5.55,5.55,0,0,0,4.14,1.56,18.17,18.17,0,0,0,3.75-.5V27.67a2.62,2.62,0,0,1,.15-1.19c.1-.14.4-.22.89-.25h.14v-.69h-4.67Z" style="fill:#231f61"/><path d="M122.58,28q-.07,1.13-.24,1.26a4.26,4.26,0,0,1-1.51.13h-1.12a8,8,0,0,1-1.44-.07q-.35-.1-.35-1.59v-4h1.91a4.26,4.26,0,0,1,1.15.09c.16.06.24.33.25.8l0,.16h.95V21.86h-.95l0,.17q0,.78-.18.83a7,7,0,0,1-1.23.05H118V17.85h2.86a2.49,2.49,0,0,1,1.08.14c.16.1.24.31.24.65q0,.08,0,.54l0,.17h1.33V17h-9.78v.84h.17c.61,0,1,.15,1.09.31a3.31,3.31,0,0,1,.18,1.44V27.7a3.28,3.28,0,0,1-.18,1.45c-.12.16-.48.27-1.09.31h-.17v.84h10.17V27.8h-1.33Z" style="fill:#231f61"/><path d="M129.77,23.89l-.74-.43a4.73,4.73,0,0,1-1.23-.91,1.44,1.44,0,0,1-.32-1,1.73,1.73,0,0,1,.49-1.25,1.6,1.6,0,0,1,1.2-.51,1.89,1.89,0,0,1,1.38.54,2.31,2.31,0,0,1,.3,1.29v.13H132V19.59a10.77,10.77,0,0,0-3-.48,3.93,3.93,0,0,0-2.64.85,2.82,2.82,0,0,0-1,2.25q0,1.79,2.75,3.31l.73.4a4.09,4.09,0,0,1,1.23.92A1.8,1.8,0,0,1,130.4,28a1.86,1.86,0,0,1-2,2,2.46,2.46,0,0,1-1.6-.55,1.78,1.78,0,0,1-.38-1.24v-.18h-1.1v2.29a13.7,13.7,0,0,0,3.09.41,4.7,4.7,0,0,0,3-.9,2.92,2.92,0,0,0,1.12-2.4,2.76,2.76,0,0,0-.59-1.79A8.47,8.47,0,0,0,129.77,23.89Z" style="fill:#231f61"/><path d="M138.21,23.89l-.74-.43a4.73,4.73,0,0,1-1.23-.91,1.44,1.44,0,0,1-.32-1,1.73,1.73,0,0,1,.49-1.25,1.6,1.6,0,0,1,1.2-.51,1.89,1.89,0,0,1,1.38.54,2.31,2.31,0,0,1,.3,1.29v.13h1.1V19.59a10.77,10.77,0,0,0-3-.48,3.93,3.93,0,0,0-2.64.85,2.82,2.82,0,0,0-1,2.25q0,1.79,2.75,3.31l.73.4a4.09,4.09,0,0,1,1.23.92,1.8,1.8,0,0,1,.32,1.11,1.86,1.86,0,0,1-2,2,2.46,2.46,0,0,1-1.6-.55,1.78,1.78,0,0,1-.38-1.24v-.18h-1.1v2.29a13.7,13.7,0,0,0,3.09.41,4.7,4.7,0,0,0,3-.9,2.92,2.92,0,0,0,1.12-2.4,2.76,2.76,0,0,0-.59-1.79A8.47,8.47,0,0,0,138.21,23.89Z" style="fill:#231f61"/><path d="M149.09,28.44q-.06.93-.19,1a3.51,3.51,0,0,1-1.24.11h-.92a6.62,6.62,0,0,1-1.18-.06q-.29-.08-.29-1.31V24.92h1.57a3.52,3.52,0,0,1,.95.07c.13.05.2.27.21.66v.13h.78V23.41H148v.14q0,.64-.14.68a5.76,5.76,0,0,1-1,0H145.3V20.11h2.36a2,2,0,0,1,.89.12c.13.08.2.26.2.53q0,.07,0,.45v.14h1.1v-2h-8.06v.69H142c.5,0,.81.13.9.26a2.73,2.73,0,0,1,.14,1.19v6.69a2.7,2.7,0,0,1-.15,1.19c-.1.14-.4.22-.9.25h-.14v.69h8.38V28.3h-1.1Z" style="fill:#231f61"/><path d="M158.57,20.07h.14c.5,0,.81.13.9.26a2.73,2.73,0,0,1,.14,1.19v6.15l-6-8.29H151v.69h.14c.5,0,.81.13.9.26a2.73,2.73,0,0,1,.14,1.19v6.69a2.71,2.71,0,0,1-.15,1.19c-.1.14-.4.22-.9.25H151v.69h3.46v-.69h-.13c-.5,0-.81-.12-.91-.25a2.71,2.71,0,0,1-.15-1.19v-6l6.09,8.31h1.52v-9a2.68,2.68,0,0,1,.15-1.19c.1-.13.4-.22.91-.26H162v-.69h-3.46Z" style="fill:#231f61"/><path d="M162.9,21.67H164v-.21c0-.65.07-1,.2-1.16a1.38,1.38,0,0,1,.89-.19h1.79v8.11a2.4,2.4,0,0,1-.17,1.19c-.11.13-.47.22-1.07.25h-.13v.69h5v-.69h-.13a2.25,2.25,0,0,1-1.07-.21,3.49,3.49,0,0,1-.17-1.25v-8.1H171a1.38,1.38,0,0,1,.89.19c.13.13.2.51.2,1.16v.21h1.1V19.38H162.9Z" style="fill:#231f61"/><path d="M173.77,20.07h.14c.5,0,.8.13.9.26a2.73,2.73,0,0,1,.14,1.19v6.69a2.71,2.71,0,0,1-.15,1.19c-.1.14-.4.22-.9.25h-.14v.69h4.67v-.69h-.13c-.5,0-.81-.12-.91-.25a2.71,2.71,0,0,1-.15-1.19V21.53a2.73,2.73,0,0,1,.14-1.19c.1-.13.4-.22.91-.26h.13v-.69h-4.67Z" style="fill:#231f61"/><path d="M190,29.47a7.3,7.3,0,0,1-.69-1.25l-4.13-8.93h-.76l-4.1,8.92a7.13,7.13,0,0,1-.66,1.27,1.26,1.26,0,0,1-.75.19h-.14v.69h2.93v-.69h-.14l-.28,0q-.47,0-.47-.24a3.62,3.62,0,0,1,.4-1.2l.56-1.18h4.63l.55,1.17a3.89,3.89,0,0,1,.42,1.18q0,.23-.95.29h-.14v.69h4.58v-.69h-.1A1.45,1.45,0,0,1,190,29.47Zm-7.87-3.18L184.05,22l2,4.27Z" style="fill:#231f61"/><path d="M198.53,27.89a7.26,7.26,0,0,1-.07,1.45.37.37,0,0,1-.33.19,9.25,9.25,0,0,1-1.07.06h-.93a6.68,6.68,0,0,1-1.19-.06q-.29-.08-.29-1.31V21.53a2.73,2.73,0,0,1,.14-1.19c.1-.13.4-.22.91-.26h.13v-.69h-4.67v.69h.14c.5,0,.8.13.9.26a2.73,2.73,0,0,1,.14,1.19v6.69a2.71,2.71,0,0,1-.15,1.19c-.1.14-.4.22-.9.25h-.14v.69h8.46V27.75h-1.1Z" style="fill:#231f61"/><path d="M207.12,25.55a8.47,8.47,0,0,0-2.23-1.66l-.74-.43a4.73,4.73,0,0,1-1.23-.91,1.44,1.44,0,0,1-.32-1,1.73,1.73,0,0,1,.49-1.25,1.6,1.6,0,0,1,1.2-.51,1.89,1.89,0,0,1,1.38.54,2.31,2.31,0,0,1,.3,1.29v.13h1.1V19.59a10.77,10.77,0,0,0-3-.48,3.93,3.93,0,0,0-2.64.85,2.82,2.82,0,0,0-1,2.25q0,1.79,2.75,3.31l.73.4a4.09,4.09,0,0,1,1.23.92,1.8,1.8,0,0,1,.32,1.11,1.86,1.86,0,0,1-2,2,2.46,2.46,0,0,1-1.6-.55,1.78,1.78,0,0,1-.38-1.24v-.18h-1.1v2.29a13.7,13.7,0,0,0,3.09.41,4.7,4.7,0,0,0,3-.9,2.92,2.92,0,0,0,1.12-2.4A2.76,2.76,0,0,0,207.12,25.55Z" style="fill:#231f61"/><rect width="208" height="48" style="fill:none"/><path d="M37.35,31a1.52,1.52,0,0,0-1.18-.51A1.54,1.54,0,0,0,35,31a2.52,2.52,0,0,0-.46,1.7v1.79H26.07V29.67H29a3.63,3.63,0,0,0,.24,1.68,1.66,1.66,0,0,0,2.8,0,2.78,2.78,0,0,0,.26-1.45v-3.8a2.52,2.52,0,0,0-.46-1.7,1.52,1.52,0,0,0-1.18-.51,1.59,1.59,0,0,0-1.42.79A3.58,3.58,0,0,0,29,26.37h-2.9V21.6h7.7v1.72A2.48,2.48,0,0,0,34.24,25a1.55,1.55,0,0,0,1.2.5A1.52,1.52,0,0,0,36.63,25a2.52,2.52,0,0,0,.45-1.68v-5H23.46a5.34,5.34,0,0,0-.66-.35,19.63,19.63,0,0,0-3.9-1.1,24,24,0,0,1-3.09-.73,2.77,2.77,0,0,1-1.25-.89A2,2,0,0,1,14.14,14a2.29,2.29,0,0,1,1-1.73A4.41,4.41,0,0,1,18,11.48a5.23,5.23,0,0,1,2.16.42,3.54,3.54,0,0,1,1.4,1A3,3,0,0,1,22,14.1a1.86,1.86,0,0,0,.53,1.1,1.62,1.62,0,0,0,1.06.37,1.52,1.52,0,0,0,1.18-.51,2.52,2.52,0,0,0,.46-1.7V10.88A2.49,2.49,0,0,0,24.8,9.2a1.52,1.52,0,0,0-1.18-.51,1.88,1.88,0,0,0-1.29.63,6.6,6.6,0,0,0-2-.86A9.39,9.39,0,0,0,18,8.17,7.42,7.42,0,0,0,12.84,10a5.43,5.43,0,0,0-2,4.15,5.16,5.16,0,0,0,.81,2.79,5.47,5.47,0,0,0,2.19,2,15.59,15.59,0,0,0,4.09,1.21,22.17,22.17,0,0,1,2.88.66,3.15,3.15,0,0,1,1.42.89,1.81,1.81,0,0,1,.44,1.15,1.84,1.84,0,0,1-.9,1.55,6,6,0,0,1-3.63,1,6.51,6.51,0,0,1-2.61-.52,5.1,5.1,0,0,1-1.66-1,2.74,2.74,0,0,1-.44-1,1.94,1.94,0,0,0-.6-1,1.54,1.54,0,0,0-1-.31,1.56,1.56,0,0,0-1.22.51,2.52,2.52,0,0,0-.46,1.7V26a2.49,2.49,0,0,0,.46,1.68,1.56,1.56,0,0,0,1.22.51,1.35,1.35,0,0,0,.65-.15,2.92,2.92,0,0,0,.7-.66,11,11,0,0,0,2.52,1,10.76,10.76,0,0,0,2.67.33,9.42,9.42,0,0,0,4.36-1v6.82h-.52a2.52,2.52,0,0,0-1.69.46A1.51,1.51,0,0,0,20,36.17a1.54,1.54,0,0,0,.51,1.2,2.52,2.52,0,0,0,1.7.46H37.81V32.74A2.52,2.52,0,0,0,37.35,31Z" style="fill:#242062"/><path d="M38,38H22.26a2.65,2.65,0,0,1-1.82-.5,1.72,1.72,0,0,1-.56-1.33,1.68,1.68,0,0,1,.57-1.31,2.65,2.65,0,0,1,1.81-.5h.34V28a9.76,9.76,0,0,1-4.19.87,11,11,0,0,1-2.71-.34,11.19,11.19,0,0,1-2.44-.94,2.74,2.74,0,0,1-.66.6,1.52,1.52,0,0,1-.74.17,1.74,1.74,0,0,1-1.34-.56A2.62,2.62,0,0,1,10,26V23.75a2.65,2.65,0,0,1,.5-1.82,1.74,1.74,0,0,1,1.34-.56,1.71,1.71,0,0,1,1.08.34,2.11,2.11,0,0,1,.66,1.11,2.48,2.48,0,0,0,.4.91,5,5,0,0,0,1.6,1,6.36,6.36,0,0,0,2.54.5,5.87,5.87,0,0,0,3.52-1,1.67,1.67,0,0,0,.83-1.41,1.62,1.62,0,0,0-.4-1,3,3,0,0,0-1.34-.84,22.12,22.12,0,0,0-2.86-.65A15.83,15.83,0,0,1,13.77,19,5.66,5.66,0,0,1,11.51,17a5.36,5.36,0,0,1-.83-2.88,5.61,5.61,0,0,1,2-4.28A7.62,7.62,0,0,1,18,8a9.61,9.61,0,0,1,2.4.29,6.83,6.83,0,0,1,1.91.81,2,2,0,0,1,1.31-.58,1.7,1.7,0,0,1,1.31.56,2.62,2.62,0,0,1,.5,1.8v2.48a2.65,2.65,0,0,1-.5,1.82,1.7,1.7,0,0,1-1.31.56,1.8,1.8,0,0,1-1.17-.41,2,2,0,0,1-.59-1.19A2.88,2.88,0,0,0,21.43,13a3.37,3.37,0,0,0-1.34-1,5.08,5.08,0,0,0-2.09-.4,4.26,4.26,0,0,0-2.72.79,2.14,2.14,0,0,0-1,1.6,1.8,1.8,0,0,0,.39,1.08,2.62,2.62,0,0,0,1.17.84,24.26,24.26,0,0,0,3.06.72,19.86,19.86,0,0,1,3.94,1.11,5.56,5.56,0,0,1,.64.33H37.25v5.2a2.65,2.65,0,0,1-.49,1.8,1.69,1.69,0,0,1-1.32.57,1.72,1.72,0,0,1-1.33-.56,2.61,2.61,0,0,1-.5-1.81V21.77H26.25V26.2H28.8a3.32,3.32,0,0,1,.27-1.58,1.75,1.75,0,0,1,1.56-.87,1.7,1.7,0,0,1,1.31.56,2.65,2.65,0,0,1,.5,1.82v3.8a2.89,2.89,0,0,1-.29,1.55,1.83,1.83,0,0,1-3.09,0,3.37,3.37,0,0,1-.27-1.6H26.25v4.51h8.08V32.74a2.65,2.65,0,0,1,.5-1.82,1.72,1.72,0,0,1,1.33-.56,1.7,1.7,0,0,1,1.31.56,2.65,2.65,0,0,1,.5,1.82ZM22.26,34.7a2.38,2.38,0,0,0-1.58.42,1.34,1.34,0,0,0-.46,1.06,1.37,1.37,0,0,0,.45,1.07,2.37,2.37,0,0,0,1.58.41H37.63V32.74a2.37,2.37,0,0,0-.41-1.58,1.35,1.35,0,0,0-1.06-.45,1.37,1.37,0,0,0-1.07.45,2.37,2.37,0,0,0-.41,1.58v2H25.9V29.5h3.24v.17a3.35,3.35,0,0,0,.21,1.58,1.49,1.49,0,0,0,2.52,0,2.53,2.53,0,0,0,.23-1.35v-3.8a2.37,2.37,0,0,0-.41-1.58,1.35,1.35,0,0,0-1.06-.45,1.41,1.41,0,0,0-1.27.71,3.29,3.29,0,0,0-.21,1.57v.17H25.9V21.43h8v1.9a2.34,2.34,0,0,0,.41,1.58,1.38,1.38,0,0,0,1.07.44,1.34,1.34,0,0,0,1.06-.45,2.38,2.38,0,0,0,.41-1.57V18.47H23.41l0,0a5.23,5.23,0,0,0-.64-.33A19.58,19.58,0,0,0,18.87,17a23.78,23.78,0,0,1-3.12-.73,3,3,0,0,1-1.32-1A2.13,2.13,0,0,1,14,14a2.45,2.45,0,0,1,1.1-1.87A4.6,4.6,0,0,1,18,11.3a5.43,5.43,0,0,1,2.23.43,3.72,3.72,0,0,1,1.47,1.08,3.17,3.17,0,0,1,.48,1.24,1.71,1.71,0,0,0,.47,1,1.45,1.45,0,0,0,1,.34,1.35,1.35,0,0,0,1.06-.45,2.37,2.37,0,0,0,.41-1.58V10.88a2.34,2.34,0,0,0-.41-1.57,1.35,1.35,0,0,0-1.06-.45,1.72,1.72,0,0,0-1.17.58l-.1.1-.12-.08a6.45,6.45,0,0,0-1.92-.84A9.27,9.27,0,0,0,18,8.34a7.29,7.29,0,0,0-5,1.74,5.29,5.29,0,0,0-1.93,4,5,5,0,0,0,.78,2.7,5.32,5.32,0,0,0,2.12,1.94,15.51,15.51,0,0,0,4,1.19,22.09,22.09,0,0,1,2.91.67,3.33,3.33,0,0,1,1.49.95,2,2,0,0,1,.47,1.26,2,2,0,0,1-1,1.69,6.2,6.2,0,0,1-3.72,1.06A6.7,6.7,0,0,1,15.48,25,5.21,5.21,0,0,1,13.76,24a2.85,2.85,0,0,1-.47-1,1.78,1.78,0,0,0-.54-.94,1.37,1.37,0,0,0-.87-.27,1.38,1.38,0,0,0-1.09.45,2.37,2.37,0,0,0-.41,1.58V26a2.34,2.34,0,0,0,.41,1.57,1.38,1.38,0,0,0,1.09.45,1.18,1.18,0,0,0,.57-.12,2.68,2.68,0,0,0,.65-.62l.09-.11.12.07a10.88,10.88,0,0,0,2.48,1,10.65,10.65,0,0,0,2.62.32,9.3,9.3,0,0,0,4.28-1l.25-.13V34.7Z" style="fill:#b5a232"/><path d="M24,1.5A22.5,22.5,0,1,1,1.5,24,22.53,22.53,0,0,1,24,1.5M24,1A23,23,0,1,0,47,24,23,23,0,0,0,24,1Z" style="fill:#b5a232"/></svg>