<svg xmlns="http://www.w3.org/2000/svg" viewBox="0 0 48 48"><rect width="48" height="48" style="fill:none"/><path d="M37.35,31a1.52,1.52,0,0,0-1.18-.51A1.54,1.54,0,0,0,35,31a2.52,2.52,0,0,0-.46,1.7v1.79H26.07V29.67H29a3.63,3.63,0,0,0,.24,1.68,1.66,1.66,0,0,0,2.8,0,2.78,2.78,0,0,0,.26-1.45v-3.8a2.52,2.52,0,0,0-.46-1.7,1.52,1.52,0,0,0-1.18-.51,1.59,1.59,0,0,0-1.42.79A3.58,3.58,0,0,0,29,26.37h-2.9V21.6h7.7v1.72A2.48,2.48,0,0,0,34.24,25a1.55,1.55,0,0,0,1.2.5A1.52,1.52,0,0,0,36.63,25a2.52,2.52,0,0,0,.45-1.68v-5H23.46a5.34,5.34,0,0,0-.66-.35,19.63,19.63,0,0,0-3.9-1.1,24,24,0,0,1-3.09-.73,2.77,2.77,0,0,1-1.25-.89A2,2,0,0,1,14.14,14a2.29,2.29,0,0,1,1-1.73A4.41,4.41,0,0,1,18,11.48a5.23,5.23,0,0,1,2.16.42,3.54,3.54,0,0,1,1.4,1A3,3,0,0,1,22,14.1a1.86,1.86,0,0,0,.53,1.1,1.62,1.62,0,0,0,1.06.37,1.52,1.52,0,0,0,1.18-.51,2.52,2.52,0,0,0,.46-1.7V10.88A2.49,2.49,0,0,0,24.8,9.2a1.52,1.52,0,0,0-1.18-.51,1.88,1.88,0,0,0-1.29.63,6.6,6.6,0,0,0-2-.86A9.39,9.39,0,0,0,18,8.17,7.42,7.42,0,0,0,12.84,10a5.43,5.43,0,0,0-2,4.15,5.16,5.16,0,0,0,.81,2.79,5.47,5.47,0,0,0,2.19,2,15.59,15.59,0,0,0,4.09,1.21,22.17,22.17,0,0,1,2.88.66,3.15,3.15,0,0,1,1.42.89,1.81,1.81,0,0,1,.44,1.15,1.84,1.84,0,0,1-.9,1.55,6,6,0,0,1-3.63,1,6.51,6.51,0,0,1-2.61-.52,5.1,5.1,0,0,1-1.66-1,2.74,2.74,0,0,1-.44-1,1.94,1.94,0,0,0-.6-1,1.54,1.54,0,0,0-1-.31,1.56,1.56,0,0,0-1.22.51,2.52,2.52,0,0,0-.46,1.7V26a2.49,2.49,0,0,0,.46,1.68,1.56,1.56,0,0,0,1.22.51,1.35,1.35,0,0,0,.65-.15,2.92,2.92,0,0,0,.7-.66,11,11,0,0,0,2.52,1,10.76,10.76,0,0,0,2.67.33,9.42,9.42,0,0,0,4.36-1v6.82h-.52a2.52,2.52,0,0,0-1.69.46A1.51,1.51,0,0,0,20,36.17a1.54,1.54,0,0,0,.51,1.2,2.52,2.52,0,0,0,1.7.46H37.81V32.74A2.52,2.52,0,0,0,37.35,31Z" style="fill:#242062"/><path d="M38,38H22.26a2.65,2.65,0,0,1-1.82-.5,1.72,1.72,0,0,1-.56-1.33,1.68,1.68,0,0,1,.57-1.31,2.65,2.65,0,0,1,1.81-.5h.34V28a9.76,9.76,0,0,1-4.19.87,11,11,0,0,1-2.71-.34,11.19,11.19,0,0,1-2.44-.94,2.74,2.74,0,0,1-.66.6,1.52,1.52,0,0,1-.74.17,1.74,1.74,0,0,1-1.34-.56A2.62,2.62,0,0,1,10,26V23.75a2.65,2.65,0,0,1,.5-1.82,1.74,1.74,0,0,1,1.34-.56,1.71,1.71,0,0,1,1.08.34,2.11,2.11,0,0,1,.66,1.11,2.48,2.48,0,0,0,.4.91,5,5,0,0,0,1.6,1,6.36,6.36,0,0,0,2.54.5,5.87,5.87,0,0,0,3.52-1,1.67,1.67,0,0,0,.83-1.41,1.62,1.62,0,0,0-.4-1,3,3,0,0,0-1.34-.84,22.12,22.12,0,0,0-2.86-.65A15.83,15.83,0,0,1,13.77,19,5.66,5.66,0,0,1,11.51,17a5.36,5.36,0,0,1-.83-2.88,5.61,5.61,0,0,1,2-4.28A7.62,7.62,0,0,1,18,8a9.61,9.61,0,0,1,2.4.29,6.83,6.83,0,0,1,1.91.81,2,2,0,0,1,1.31-.58,1.7,1.7,0,0,1,1.31.56,2.62,2.62,0,0,1,.5,1.8v2.48a2.65,2.65,0,0,1-.5,1.82,1.7,1.7,0,0,1-1.31.56,1.8,1.8,0,0,1-1.17-.41,2,2,0,0,1-.59-1.19A2.88,2.88,0,0,0,21.43,13a3.37,3.37,0,0,0-1.34-1,5.08,5.08,0,0,0-2.09-.4,4.26,4.26,0,0,0-2.72.79,2.14,2.14,0,0,0-1,1.6,1.8,1.8,0,0,0,.39,1.08,2.62,2.62,0,0,0,1.17.84,24.26,24.26,0,0,0,3.06.72,19.86,19.86,0,0,1,3.94,1.11,5.56,5.56,0,0,1,.64.33H37.25v5.2a2.65,2.65,0,0,1-.49,1.8,1.69,1.69,0,0,1-1.32.57,1.72,1.72,0,0,1-1.33-.56,2.61,2.61,0,0,1-.5-1.81V21.77H26.25V26.2H28.8a3.32,3.32,0,0,1,.27-1.58,1.75,1.75,0,0,1,1.56-.87,1.7,1.7,0,0,1,1.31.56,2.65,2.65,0,0,1,.5,1.82v3.8a2.89,2.89,0,0,1-.29,1.55,1.83,1.83,0,0,1-3.09,0,3.37,3.37,0,0,1-.27-1.6H26.25v4.51h8.08V32.74a2.65,2.65,0,0,1,.5-1.82,1.72,1.72,0,0,1,1.33-.56,1.7,1.7,0,0,1,1.31.56,2.65,2.65,0,0,1,.5,1.82ZM22.26,34.7a2.38,2.38,0,0,0-1.58.42,1.34,1.34,0,0,0-.46,1.06,1.37,1.37,0,0,0,.45,1.07,2.37,2.37,0,0,0,1.58.41H37.63V32.74a2.37,2.37,0,0,0-.41-1.58,1.35,1.35,0,0,0-1.06-.45,1.37,1.37,0,0,0-1.07.45,2.37,2.37,0,0,0-.41,1.58v2H25.9V29.5h3.24v.17a3.35,3.35,0,0,0,.21,1.58,1.49,1.49,0,0,0,2.52,0,2.53,2.53,0,0,0,.23-1.35v-3.8a2.37,2.37,0,0,0-.41-1.58,1.35,1.35,0,0,0-1.06-.45,1.41,1.41,0,0,0-1.27.71,3.29,3.29,0,0,0-.21,1.57v.17H25.9V21.43h8v1.9a2.34,2.34,0,0,0,.41,1.58,1.38,1.38,0,0,0,1.07.44,1.34,1.34,0,0,0,1.06-.45,2.38,2.38,0,0,0,.41-1.57V18.47H23.41l0,0a5.23,5.23,0,0,0-.64-.33A19.58,19.58,0,0,0,18.87,17a23.78,23.78,0,0,1-3.12-.73,3,3,0,0,1-1.32-1A2.13,2.13,0,0,1,14,14a2.45,2.45,0,0,1,1.1-1.87A4.6,4.6,0,0,1,18,11.3a5.43,5.43,0,0,1,2.23.43,3.72,3.72,0,0,1,1.47,1.08,3.17,3.17,0,0,1,.48,1.24,1.71,1.71,0,0,0,.47,1,1.45,1.45,0,0,0,1,.34,1.35,1.35,0,0,0,1.06-.45,2.37,2.37,0,0,0,.41-1.58V10.88a2.34,2.34,0,0,0-.41-1.57,1.35,1.35,0,0,0-1.06-.45,1.72,1.72,0,0,0-1.17.58l-.1.1-.12-.08a6.45,6.45,0,0,0-1.92-.84A9.27,9.27,0,0,0,18,8.34a7.29,7.29,0,0,0-5,1.74,5.29,5.29,0,0,0-1.93,4,5,5,0,0,0,.78,2.7,5.32,5.32,0,0,0,2.12,1.94,15.51,15.51,0,0,0,4,1.19,22.09,22.09,0,0,1,2.91.67,3.33,3.33,0,0,1,1.49.95,2,2,0,0,1,.47,1.26,2,2,0,0,1-1,1.69,6.2,6.2,0,0,1-3.72,1.06A6.7,6.7,0,0,1,15.48,25,5.21,5.21,0,0,1,13.76,24a2.85,2.85,0,0,1-.47-1,1.78,1.78,0,0,0-.54-.94,1.37,1.37,0,0,0-.87-.27,1.38,1.38,0,0,0-1.09.45,2.37,2.37,0,0,0-.41,1.58V26a2.34,2.34,0,0,0,.41,1.57,1.38,1.38,0,0,0,1.09.45,1.18,1.18,0,0,0,.57-.12,2.68,2.68,0,0,0,.65-.62l.09-.11.12.07a10.88,10.88,0,0,0,2.48,1,10.65,10.65,0,0,0,2.62.32,9.3,9.3,0,0,0,4.28-1l.25-.13V34.7Z" style="fill:#b5a232"/><path d="M24,1.5A22.5,22.5,0,1,1,1.5,24,22.53,22.53,0,0,1,24,1.5M24,1A23,23,0,1,0,47,24,23,23,0,0,0,24,1Z" style="fill:#b5a232"/></svg>