<svg xmlns="http://www.w3.org/2000/svg" viewBox="0 0 48 48"><rect width="48" height="48" style="fill:none"/><path d="M33.3,25.84a1.06,1.06,0,0,0-.83-.35,1.08,1.08,0,0,0-.84.35A1.75,1.75,0,0,0,31.32,27v1.25H25.45V24.89h2a2.53,2.53,0,0,0,.17,1.17,1.16,1.16,0,0,0,2,0,1.94,1.94,0,0,0,.18-1V22.42a1.75,1.75,0,0,0-.32-1.18,1.06,1.06,0,0,0-.83-.35,1.11,1.11,0,0,0-1,.55,2.5,2.5,0,0,0-.17,1.16h-2V19.27h5.37v1.2a1.73,1.73,0,0,0,.32,1.18A1.08,1.08,0,0,0,32,22a1.06,1.06,0,0,0,.83-.35,1.75,1.75,0,0,0,.31-1.17V17H23.63a3.72,3.72,0,0,0-.46-.24A13.68,13.68,0,0,0,20.45,16a16.74,16.74,0,0,1-2.15-.51,1.93,1.93,0,0,1-.87-.62,1.36,1.36,0,0,1-.3-.83,1.59,1.59,0,0,1,.72-1.21,3.07,3.07,0,0,1,2-.58,3.65,3.65,0,0,1,1.5.29,2.46,2.46,0,0,1,1,.72,2.12,2.12,0,0,1,.31.82,1.3,1.3,0,0,0,.37.76,1.13,1.13,0,0,0,.74.26,1.06,1.06,0,0,0,.83-.35,1.75,1.75,0,0,0,.32-1.18V11.8a1.73,1.73,0,0,0-.32-1.17,1.06,1.06,0,0,0-.83-.35,1.31,1.31,0,0,0-.9.44,4.6,4.6,0,0,0-1.38-.6,6.54,6.54,0,0,0-1.65-.2,5.17,5.17,0,0,0-3.59,1.24A3.78,3.78,0,0,0,14.84,14,3.6,3.6,0,0,0,15.4,16a3.81,3.81,0,0,0,1.53,1.39,10.87,10.87,0,0,0,2.85.84,15.45,15.45,0,0,1,2,.46,2.2,2.2,0,0,1,1,.62,1.26,1.26,0,0,1,.3.8,1.28,1.28,0,0,1-.63,1.08,4.19,4.19,0,0,1-2.53.72,4.53,4.53,0,0,1-1.82-.36A3.56,3.56,0,0,1,17,20.84a1.91,1.91,0,0,1-.3-.68,1.35,1.35,0,0,0-.42-.71,1.08,1.08,0,0,0-.68-.21,1.09,1.09,0,0,0-.85.35,1.75,1.75,0,0,0-.32,1.18v1.55a1.73,1.73,0,0,0,.32,1.17,1.09,1.09,0,0,0,.85.35.94.94,0,0,0,.45-.1,2,2,0,0,0,.49-.46,7.69,7.69,0,0,0,1.76.69,7.5,7.5,0,0,0,1.86.23,6.56,6.56,0,0,0,3-.68v4.75h-.36a1.76,1.76,0,0,0-1.18.32,1.05,1.05,0,0,0-.36.83,1.08,1.08,0,0,0,.35.84,1.75,1.75,0,0,0,1.18.32H33.62V27A1.75,1.75,0,0,0,33.3,25.84Z" style="fill:#242062"/><path d="M33.74,30.7h-11a1.84,1.84,0,0,1-1.27-.35,1.2,1.2,0,0,1-.39-.93,1.17,1.17,0,0,1,.4-.91,1.85,1.85,0,0,1,1.26-.35H23V23.72a6.8,6.8,0,0,1-2.92.61,7.65,7.65,0,0,1-1.89-.23,7.8,7.8,0,0,1-1.7-.66,1.91,1.91,0,0,1-.46.42,1.06,1.06,0,0,1-.51.12,1.21,1.21,0,0,1-.94-.39,1.82,1.82,0,0,1-.35-1.25V20.77a1.84,1.84,0,0,1,.35-1.27,1.21,1.21,0,0,1,.94-.39,1.2,1.2,0,0,1,.75.24,1.47,1.47,0,0,1,.46.77,1.73,1.73,0,0,0,.28.63,3.47,3.47,0,0,0,1.11.68,4.43,4.43,0,0,0,1.77.35,4.09,4.09,0,0,0,2.46-.7,1.16,1.16,0,0,0,.58-1,1.13,1.13,0,0,0-.28-.73,2.09,2.09,0,0,0-.94-.59,15.41,15.41,0,0,0-2-.46,11,11,0,0,1-2.89-.85A4,4,0,0,1,15.3,16a3.73,3.73,0,0,1-.58-2,3.91,3.91,0,0,1,1.42-3,5.31,5.31,0,0,1,3.67-1.27,6.69,6.69,0,0,1,1.68.2,4.76,4.76,0,0,1,1.33.57,1.37,1.37,0,0,1,.91-.41,1.18,1.18,0,0,1,.91.39A1.82,1.82,0,0,1,25,11.8v1.73a1.84,1.84,0,0,1-.35,1.27,1.18,1.18,0,0,1-.91.39,1.25,1.25,0,0,1-.82-.29,1.39,1.39,0,0,1-.41-.83,2,2,0,0,0-.29-.77,2.35,2.35,0,0,0-.93-.68,3.54,3.54,0,0,0-1.46-.28,3,3,0,0,0-1.9.55A1.49,1.49,0,0,0,17.25,14a1.25,1.25,0,0,0,.27.75,1.82,1.82,0,0,0,.82.58,16.9,16.9,0,0,0,2.13.5,13.84,13.84,0,0,1,2.74.77,3.88,3.88,0,0,1,.44.23h9.58v3.62a1.85,1.85,0,0,1-.34,1.25,1.18,1.18,0,0,1-.92.39,1.2,1.2,0,0,1-.92-.39,1.82,1.82,0,0,1-.35-1.26V19.39H25.57v3.08h1.78a2.31,2.31,0,0,1,.19-1.1,1.22,1.22,0,0,1,1.09-.6,1.18,1.18,0,0,1,.91.39,1.84,1.84,0,0,1,.35,1.27v2.65a2,2,0,0,1-.2,1.08,1.27,1.27,0,0,1-2.15,0A2.35,2.35,0,0,1,27.35,25H25.57v3.14H31.2V27a1.84,1.84,0,0,1,.35-1.27,1.2,1.2,0,0,1,.93-.39,1.18,1.18,0,0,1,.91.39A1.84,1.84,0,0,1,33.74,27Zm-11-2.3a1.66,1.66,0,0,0-1.1.29.93.93,0,0,0-.32.74,1,1,0,0,0,.31.75,1.65,1.65,0,0,0,1.1.29H33.5V27a1.65,1.65,0,0,0-.29-1.1.94.94,0,0,0-.74-.31,1,1,0,0,0-.75.31,1.65,1.65,0,0,0-.29,1.1V28.4H25.33V24.78h2.26v.12a2.34,2.34,0,0,0,.15,1.1,1,1,0,0,0,1.75,0,1.77,1.77,0,0,0,.16-.94V22.42a1.65,1.65,0,0,0-.29-1.1.94.94,0,0,0-.74-.31,1,1,0,0,0-.89.49,2.29,2.29,0,0,0-.15,1.09v.12H25.33V19.15h5.61v1.32a1.63,1.63,0,0,0,.29,1.1,1,1,0,0,0,.75.31.94.94,0,0,0,.74-.31A1.66,1.66,0,0,0,33,20.47V17.09H23.59l0,0a3.65,3.65,0,0,0-.44-.23,13.65,13.65,0,0,0-2.69-.76,16.58,16.58,0,0,1-2.17-.51,2.06,2.06,0,0,1-.92-.66A1.48,1.48,0,0,1,17,14a1.71,1.71,0,0,1,.77-1.3,3.2,3.2,0,0,1,2-.6,3.78,3.78,0,0,1,1.55.3,2.6,2.6,0,0,1,1,.76,2.21,2.21,0,0,1,.34.87,1.19,1.19,0,0,0,.33.69,1,1,0,0,0,.67.23.94.94,0,0,0,.74-.31,1.65,1.65,0,0,0,.29-1.1V11.8a1.63,1.63,0,0,0-.29-1.09.94.94,0,0,0-.74-.31,1.2,1.2,0,0,0-.81.4l-.07.07-.08-.05a4.5,4.5,0,0,0-1.34-.58A6.46,6.46,0,0,0,19.81,10a5.08,5.08,0,0,0-3.51,1.21A3.69,3.69,0,0,0,15,14a3.5,3.5,0,0,0,.54,1.88A3.71,3.71,0,0,0,17,17.27a10.81,10.81,0,0,0,2.82.83,15.39,15.39,0,0,1,2,.47,2.32,2.32,0,0,1,1,.66,1.38,1.38,0,0,1,.33.88,1.4,1.4,0,0,1-.68,1.18,4.32,4.32,0,0,1-2.6.74,4.67,4.67,0,0,1-1.87-.37,3.63,3.63,0,0,1-1.2-.74,2,2,0,0,1-.33-.73,1.24,1.24,0,0,0-.38-.65,1,1,0,0,0-.61-.19,1,1,0,0,0-.76.31,1.65,1.65,0,0,0-.29,1.1v1.55a1.63,1.63,0,0,0,.29,1.09,1,1,0,0,0,.76.31.82.82,0,0,0,.4-.09,1.87,1.87,0,0,0,.45-.43l.06-.07.09,0a7.59,7.59,0,0,0,1.73.68,7.43,7.43,0,0,0,1.83.23,6.48,6.48,0,0,0,3-.67l.17-.09V28.4Z" style="fill:#b5a232"/><path d="M9.25,34.59l-.19-.11a1.19,1.19,0,0,1-.31-.23A.36.36,0,0,1,8.67,34a.44.44,0,0,1,.12-.32.4.4,0,0,1,.3-.13.48.48,0,0,1,.35.14.58.58,0,0,1,.08.33v0H9.8v-.56a2.72,2.72,0,0,0-.74-.12,1,1,0,0,0-.67.21.71.71,0,0,0-.25.57q0,.45.69.83l.19.1a1,1,0,0,1,.31.23.45.45,0,0,1,.08.28.47.47,0,0,1-.5.49.62.62,0,0,1-.4-.14.45.45,0,0,1-.1-.31v0H8.14v.58a3.46,3.46,0,0,0,.78.1,1.19,1.19,0,0,0,.76-.23.74.74,0,0,0,.28-.61A.7.7,0,0,0,9.81,35,2.14,2.14,0,0,0,9.25,34.59Z" style="fill:#231f61"/><path d="M12.49,34.1h0c.11,0,.17,0,.17.06a.65.65,0,0,1,0,.12l0,.13-.36,1.14L11.76,34h-.17l-.47,1.48-.3-1.06a1.1,1.1,0,0,1-.05-.25s.06-.06.19-.06h0V34h-.89v.14h0c.08,0,.14,0,.15,0a1.23,1.23,0,0,1,.1.26l.53,1.86H11l.5-1.58.51,1.58h.15l.59-1.86a2.21,2.21,0,0,1,.1-.28s0,0,.1,0h.1V34h-.61Z" style="fill:#231f61"/><path d="M13.16,34.1h0c.1,0,.17,0,.19.05a.57.57,0,0,1,0,.25v1.39a.56.56,0,0,1,0,.25s-.08,0-.19.05h0v.14h1v-.14h0q-.16,0-.19-.05a.56.56,0,0,1,0-.25V34.4a.57.57,0,0,1,0-.25s.08,0,.19-.05h0V34h-1Z" style="fill:#231f61"/><path d="M15.84,34.1h0c.1,0,.17,0,.19.05a.57.57,0,0,1,0,.25v1.28L14.83,34h-.57v.14h0c.1,0,.17,0,.19.05a.57.57,0,0,1,0,.25v1.39a.56.56,0,0,1,0,.25s-.08,0-.19.05h0v.14H15v-.14h0q-.16,0-.19-.05a.56.56,0,0,1,0-.25V34.54L16,36.27h.32V34.4a.56.56,0,0,1,0-.25s.08,0,.19-.05h0V34h-.72Z" style="fill:#231f61"/><path d="M18,35.37h0q.16,0,.19.05a.55.55,0,0,1,0,.25v.42a.72.72,0,0,1-.23,0,.64.64,0,0,1-.56-.26,1.35,1.35,0,0,1-.19-.78,1.42,1.42,0,0,1,.17-.78A.59.59,0,0,1,18,34a.69.69,0,0,1,.47.13.36.36,0,0,1,.05.24v0h.23V34a3,3,0,0,0-.75-.1,1.22,1.22,0,0,0-.89.31,1.38,1.38,0,0,0,0,1.76,1.15,1.15,0,0,0,.86.32,3.78,3.78,0,0,0,.78-.1v-.51a.54.54,0,0,1,0-.25s.08,0,.19-.05h0v-.14H18Z" style="fill:#231f61"/><path d="M22.18,35.74q0,.23,0,.26a.89.89,0,0,1-.31,0h-.53s-.07-.12-.07-.33v-.83h.4a.89.89,0,0,1,.24,0s.05.07.05.17v0h.2v-.6h-.2v0q0,.16,0,.17h-.64V33.64h.6a.52.52,0,0,1,.22,0s0,.07,0,.13,0,0,0,.11v0h.28v-.5h-2v.17h0c.13,0,.2,0,.23.07a.69.69,0,0,1,0,.3v1.69a.68.68,0,0,1,0,.3s-.1.06-.23.06h0v.17h2.11V35.7h-.28Z" style="fill:#231f61"/><path d="M23.67,34.89l-.15-.09a1,1,0,0,1-.26-.19.3.3,0,0,1-.07-.2.36.36,0,0,1,.1-.26.33.33,0,0,1,.25-.11.39.39,0,0,1,.29.11.48.48,0,0,1,.06.27v0h.23V34a2.24,2.24,0,0,0-.61-.1.82.82,0,0,0-.55.18.58.58,0,0,0-.21.47q0,.37.57.69l.15.08a.85.85,0,0,1,.26.19.37.37,0,0,1,.07.23.39.39,0,0,1-.41.41.51.51,0,0,1-.33-.11.37.37,0,0,1-.08-.26v0h-.23v.48a2.85,2.85,0,0,0,.64.08,1,1,0,0,0,.63-.19.61.61,0,0,0,.23-.5.57.57,0,0,0-.12-.37A1.76,1.76,0,0,0,23.67,34.89Z" style="fill:#231f61"/><path d="M25.42,34.89l-.15-.09a1,1,0,0,1-.26-.19.3.3,0,0,1-.07-.2.36.36,0,0,1,.1-.26A.33.33,0,0,1,25.3,34a.39.39,0,0,1,.29.11.48.48,0,0,1,.06.27v0h.23V34a2.24,2.24,0,0,0-.61-.1.82.82,0,0,0-.55.18.59.59,0,0,0-.21.47q0,.37.57.69l.15.08a.85.85,0,0,1,.26.19.37.37,0,0,1,.07.23.39.39,0,0,1-.41.41.51.51,0,0,1-.33-.11.37.37,0,0,1-.08-.26v0h-.23v.48a2.85,2.85,0,0,0,.64.08,1,1,0,0,0,.63-.19.61.61,0,0,0,.23-.5.57.57,0,0,0-.12-.37A1.76,1.76,0,0,0,25.42,34.89Z" style="fill:#231f61"/><path d="M27.68,35.84q0,.19,0,.22a.73.73,0,0,1-.26,0h-.44s-.06-.1-.06-.27V35.1h.33l.2,0s0,.06,0,.14v0h.16v-.49h-.16v0q0,.13,0,.14H26.9v-.87h.49a.43.43,0,0,1,.18,0s0,.05,0,.11v.12h.23V34H26.17v.14h0c.1,0,.17,0,.19.05a.57.57,0,0,1,0,.25v1.39a.56.56,0,0,1,0,.25s-.08,0-.19.05h0v.14h1.74v-.43h-.23Z" style="fill:#231f61"/><path d="M29.65,34.1h0c.1,0,.17,0,.19.05a.57.57,0,0,1,0,.25v1.28L28.64,34h-.57v.14h0c.1,0,.17,0,.19.05a.57.57,0,0,1,0,.25v1.39a.56.56,0,0,1,0,.25s-.08,0-.19.05h0v.14h.72v-.14h0c-.1,0-.17,0-.19-.05a.56.56,0,0,1,0-.25V34.54l1.27,1.73h.32V34.4a.56.56,0,0,1,0-.25s.08,0,.19-.05h0V34h-.72Z" style="fill:#231f61"/><path d="M30.55,34.43h.23v0c0-.13,0-.22,0-.24a.29.29,0,0,1,.18,0h.37v1.69a.5.5,0,0,1,0,.25s-.1,0-.22.05h0v.14h1v-.14h0a.47.47,0,0,1-.22,0,.72.72,0,0,1,0-.26V34.11h.37a.29.29,0,0,1,.18,0s0,.11,0,.24v0h.23V34H30.55Z" style="fill:#231f61"/><path d="M32.81,34.1h0c.1,0,.17,0,.19.05a.57.57,0,0,1,0,.25v1.39A.56.56,0,0,1,33,36s-.08,0-.19.05h0v.14h1v-.14h0c-.1,0-.17,0-.19-.05a.56.56,0,0,1,0-.25V34.4a.57.57,0,0,1,0-.25s.08,0,.19-.05h0V34h-1Z" style="fill:#231f61"/><path d="M36.18,36a1.52,1.52,0,0,1-.14-.26l-.86-1.85H35l-.85,1.85a1.48,1.48,0,0,1-.14.26.26.26,0,0,1-.15,0h0v.14h.61v-.14h-.09q-.1,0-.1-.05a.75.75,0,0,1,.08-.25l.12-.24h1l.11.24a.81.81,0,0,1,.09.25s-.07.05-.2.06h0v.14h1v-.14h0A.3.3,0,0,1,36.18,36Zm-1.64-.66.4-.89.42.89Z" style="fill:#231f61"/><path d="M38,35.72a1.51,1.51,0,0,1,0,.3.08.08,0,0,1-.07,0h-.66s-.06-.1-.06-.27V34.4a.57.57,0,0,1,0-.25s.08,0,.19-.05h0V34h-1v.14h0c.1,0,.17,0,.19.05a.57.57,0,0,1,0,.25v1.39a.56.56,0,0,1,0,.25s-.08,0-.19.05h0v.14h1.76v-.54H38Z" style="fill:#231f61"/><path d="M39.74,35.24a1.76,1.76,0,0,0-.46-.35l-.15-.09a1,1,0,0,1-.26-.19.3.3,0,0,1-.07-.2.36.36,0,0,1,.1-.26.33.33,0,0,1,.25-.11.39.39,0,0,1,.29.11.48.48,0,0,1,.06.27v0h.23V34a2.24,2.24,0,0,0-.61-.1.82.82,0,0,0-.55.18.59.59,0,0,0-.21.47q0,.37.57.69l.15.08a.85.85,0,0,1,.26.19.37.37,0,0,1,.07.23.39.39,0,0,1-.41.41.51.51,0,0,1-.33-.11.37.37,0,0,1-.08-.26v0h-.23v.48a2.85,2.85,0,0,0,.64.08,1,1,0,0,0,.63-.19.61.61,0,0,0,.23-.5A.57.57,0,0,0,39.74,35.24Z" style="fill:#231f61"/><path d="M24,1.5A22.5,22.5,0,1,1,1.5,24,22.53,22.53,0,0,1,24,1.5M24,1A23,23,0,1,0,47,24,23,23,0,0,0,24,1Z" style="fill:#b5a232"/></svg>